<svg width="20" height="20" viewBox="0 0 20 20" fill="none" xmlns="http://www.w3.org/2000/svg">
<path fill-rule="evenodd" clip-rule="evenodd" d="M12.0392 2.52251C12.199 2.566 12.3351 2.67118 12.4174 2.81494C12.4998 2.9587 12.5217 3.12928 12.4783 3.28918L8.72833 17.0392C8.68479 17.1992 8.57947 17.3354 8.43554 17.4177C8.2916 17.5001 8.12085 17.5219 7.96083 17.4783C7.80082 17.4348 7.66465 17.3295 7.58229 17.1856C7.49994 17.0416 7.47813 16.8709 7.52167 16.7108L11.2717 2.96085C11.3153 2.80095 11.4207 2.66494 11.5646 2.58273C11.7086 2.50053 11.8793 2.47887 12.0392 2.52251ZM13.9333 5.18335C14.0505 5.06631 14.2094 5.00056 14.375 5.00056C14.5406 5.00056 14.6995 5.06631 14.8167 5.18335L19.1917 9.55835C19.3087 9.67554 19.3744 9.83439 19.3744 10C19.3744 10.1656 19.3087 10.3245 19.1917 10.4417L14.8167 14.8167C14.7594 14.8781 14.6904 14.9273 14.6138 14.9615C14.5371 14.9957 14.4544 15.014 14.3704 15.0155C14.2865 15.017 14.2032 15.0016 14.1253 14.9701C14.0475 14.9387 13.9768 14.8919 13.9175 14.8325C13.8581 14.7732 13.8113 14.7025 13.7799 14.6247C13.7485 14.5469 13.733 14.4635 13.7345 14.3796C13.736 14.2957 13.7544 14.2129 13.7885 14.1362C13.8227 14.0596 13.8719 13.9906 13.9333 13.9333L17.8667 10L13.9333 6.06668C13.8163 5.94949 13.7505 5.79064 13.7505 5.62501C13.7505 5.45939 13.8163 5.30054 13.9333 5.18335ZM6.06667 5.18335C6.18371 5.30054 6.24945 5.45939 6.24945 5.62501C6.24945 5.79064 6.18371 5.94949 6.06667 6.06668L2.13333 10L6.06667 13.9333C6.12807 13.9906 6.17732 14.0596 6.21148 14.1362C6.24564 14.2129 6.26401 14.2957 6.26549 14.3796C6.26697 14.4635 6.25154 14.5469 6.2201 14.6247C6.18867 14.7025 6.14188 14.7732 6.08253 14.8325C6.02318 14.8919 5.95249 14.9387 5.87466 14.9701C5.79684 15.0016 5.71348 15.017 5.62956 15.0155C5.54564 15.014 5.46288 14.9957 5.38622 14.9615C5.30955 14.9273 5.24055 14.8781 5.18333 14.8167L0.808333 10.4417C0.691291 10.3245 0.625549 10.1656 0.625549 10C0.625549 9.83439 0.691291 9.67554 0.808333 9.55835L5.18333 5.18335C5.30052 5.06631 5.45937 5.00056 5.625 5.00056C5.79062 5.00056 5.94948 5.06631 6.06667 5.18335Z" fill="#FF720D"/>
</svg>
