<svg width="21" height="20" viewBox="0 0 21 20" fill="none" xmlns="http://www.w3.org/2000/svg">
<path d="M16.4015 4.96521H7.78988C6.56873 4.96521 5.5788 5.95515 5.5788 7.17629V15.7879C5.5788 17.009 6.56873 17.999 7.78988 17.999H16.4015C17.6226 17.999 18.6126 17.009 18.6126 15.7879V7.17629C18.6126 5.95515 17.6226 4.96521 16.4015 4.96521Z" stroke="white" stroke-width="1.24131" stroke-linejoin="round"/>
<path d="M15.4899 4.96521L15.5093 4.03423C15.5076 3.45861 15.2783 2.90703 14.8712 2.5C14.4642 2.09297 13.9126 1.86358 13.337 1.86194H4.95815C4.30031 1.86388 3.66998 2.12607 3.20482 2.59123C2.73965 3.05639 2.47747 3.68672 2.47552 4.34456V12.7234C2.47716 13.299 2.70655 13.8506 3.11358 14.2576C3.52061 14.6647 4.07219 14.8941 4.64782 14.8957H5.5788" stroke="white" stroke-width="1.24131" stroke-linecap="round" stroke-linejoin="round"/>
</svg>
