<svg width="20" height="20" viewBox="0 0 20 20" fill="none" xmlns="http://www.w3.org/2000/svg">
<path fill-rule="evenodd" clip-rule="evenodd" d="M8.2 4.60001C6.77598 4.60001 5.38393 5.02228 4.1999 5.81342C3.01586 6.60457 2.09302 7.72906 1.54807 9.04469C1.00312 10.3603 0.860536 11.808 1.13835 13.2047C1.41616 14.6013 2.1019 15.8842 3.10883 16.8912C4.11577 17.8981 5.39869 18.5838 6.79535 18.8617C8.19202 19.1395 9.6397 18.9969 10.9553 18.4519C12.271 17.907 13.3954 16.9841 14.1866 15.8001C14.9777 14.6161 15.4 13.224 15.4 11.8C15.4 11.3029 14.9971 10.9 14.5 10.9H10C9.50295 10.9 9.1 10.4971 9.1 10V5.50001C9.1 5.00295 8.69706 4.60001 8.2 4.60001Z" fill="white"/>
<path d="M11.8001 1C11.5614 1 11.3324 1.09482 11.1637 1.2636C10.9949 1.43239 10.9001 1.66131 10.9001 1.9V8.2C10.9001 8.4387 10.9949 8.66761 11.1637 8.8364C11.3324 9.00518 11.5614 9.1 11.8001 9.1L18.1001 9.1C18.3388 9.1 18.5677 9.00518 18.7365 8.83639C18.9052 8.66761 19.0001 8.43869 19.0001 8.2C19.0001 6.29044 18.2415 4.45909 16.8912 3.10883C15.541 1.75857 13.7096 1 11.8001 1Z" fill="#DADADA"/>
</svg>
