<svg width="20" height="20" viewBox="0 0 20 20" fill="none" xmlns="http://www.w3.org/2000/svg">
<path d="M18 15V8.19998C18 6.54312 16.6569 5.19998 15 5.19998H4.4V3.59998H2V15C2 16.6568 3.34315 18 5 18H15C16.6569 18 18 16.6568 18 15Z" fill="#FF720D"/>
<path d="M13.2001 11.6C13.2001 10.7163 13.9164 10 14.8001 10H18.0001V13.2H14.8001C13.9164 13.2 13.2001 12.4837 13.2001 11.6V11.6Z" fill="#F79226"/>
<path d="M3.6 2C2.71634 2 2 2.71634 2 3.6C2 4.48366 2.71634 5.2 3.6 5.2H15.6C15.8805 5.2 16.1498 5.24812 16.4 5.33656V2.8C16.4 2.35817 16.0418 2 15.6 2H3.6Z" fill="#F79226"/>
</svg>
