<svg width="22" height="22" viewBox="0 0 22 22" fill="none" xmlns="http://www.w3.org/2000/svg">
<rect x="0.594666" y="0.648529" width="20.6972" height="20.6972" rx="7" fill="#ED4E2C"/>
<path d="M10.9432 5.71588C8.03119 5.71588 5.66199 8.08508 5.66199 10.9971C5.66199 13.9092 8.03119 16.2784 10.9432 16.2784C13.8553 16.2784 16.2245 13.9092 16.2245 10.9971C16.2245 8.08508 13.8553 5.71588 10.9432 5.71588ZM10.9432 13.8386C10.8428 13.8386 10.7446 13.8088 10.6611 13.753C10.5776 13.6972 10.5125 13.6179 10.4741 13.5251C10.4356 13.4323 10.4256 13.3302 10.4452 13.2317C10.4648 13.1332 10.5131 13.0427 10.5842 12.9717C10.6552 12.9007 10.7457 12.8523 10.8442 12.8327C10.9427 12.8131 11.0448 12.8232 11.1376 12.8616C11.2304 12.9001 11.3097 12.9651 11.3655 13.0487C11.4213 13.1322 11.451 13.2303 11.451 13.3308C11.451 13.4655 11.3975 13.5946 11.3023 13.6899C11.2071 13.7851 11.0779 13.8386 10.9432 13.8386ZM11.4947 8.73127L11.349 11.8289C11.349 11.9367 11.3062 12.04 11.23 12.1162C11.1538 12.1924 11.0505 12.2352 10.9427 12.2352C10.835 12.2352 10.7317 12.1924 10.6555 12.1162C10.5793 12.04 10.5365 11.9367 10.5365 11.8289L10.3907 8.7328V8.73153C10.3875 8.65711 10.3994 8.58282 10.4257 8.51313C10.452 8.44344 10.4921 8.37978 10.5436 8.326C10.5951 8.27221 10.657 8.22941 10.7255 8.20017C10.794 8.17094 10.8677 8.15586 10.9422 8.15586C11.0167 8.15586 11.0904 8.17094 11.1589 8.20017C11.2274 8.22941 11.2893 8.27221 11.3408 8.326C11.3923 8.37978 11.4325 8.44344 11.4587 8.51313C11.485 8.58282 11.4969 8.65711 11.4937 8.73153L11.4947 8.73127Z" fill="white"/>
</svg>
