<svg width="92" height="75" viewBox="0 0 92 75" fill="none" xmlns="http://www.w3.org/2000/svg">
<path d="M56.5962 6.02706C56.5962 6.02706 46.5623 1.36284 43.1321 9.00396C39.8262 16.348 45.3948 19.7255 45.3948 19.7255C45.3948 19.7255 36.9049 42.2387 27.6885 37.5675C18.5712 32.9377 19.1564 17.3569 19.1564 17.3569C19.1564 17.3569 25.381 18.3325 27.0772 10.664C28.3246 4.90224 21.9175 -0.920737 14.3163 1.9495C6.81415 4.86118 7.61888 13.2271 12.8904 16.4803C12.9688 35.4807 3.07936 44.3754 1.30178 45.8425C1.16132 45.9001 1.17747 46.1395 1.37552 46.2224L34.252 59.9798L67.1285 73.7372C67.2275 73.7787 67.368 73.7211 67.4508 73.5231C67.2479 71.2272 66.6406 57.9401 80.2278 44.6582C86.2037 46.2279 92.7683 40.8294 89.5757 33.4424C86.3831 26.0554 77.7384 25.5798 74.4114 30.4714C70.0415 37.0211 75.2049 40.8108 75.2049 40.8108C75.2049 40.8108 64.519 52.165 54.8215 48.9215C45.124 45.6781 55.0993 23.7865 55.0993 23.7865C55.0993 23.7865 61.4138 25.3815 64.3236 17.8717C67.3577 10.0648 56.9923 6.19281 56.9923 6.19281" stroke="url(#paint0_linear_11_2468)" stroke-width="2" stroke-miterlimit="10" stroke-linecap="round"/>
<defs>
<linearGradient id="paint0_linear_11_2468" x1="56.7957" y1="6.10651" x2="30.1238" y2="70.5351" gradientUnits="userSpaceOnUse">
<stop stop-color="#FCB540"/>
<stop offset="1" stop-color="#FCB540" stop-opacity="0"/>
</linearGradient>
</defs>
</svg>
