<svg width="28" height="22" viewBox="0 0 28 22" fill="none" xmlns="http://www.w3.org/2000/svg">
<path d="M12.8933 1.07082C12.8545 1.04908 12.8545 1.04908 12.8327 1.08785C11.7361 3.22505 8.66667 9.60732 8.83373 14.2625C9.02269 19.9237 13.5547 18.1586 12.741 14.3385C11.9651 10.769 2.71028 9.09562 1.64456 8.9057C1.60579 8.88396 1.59256 8.95299 1.60107 8.98325L9.0502 20.6017C9.05872 20.632 9.12775 20.6452 9.15801 20.6367L17.6605 18.2441L26.163 15.8515C26.1932 15.843 26.2452 15.7957 26.2367 15.7655L26.5336 1.96726C26.5251 1.937 26.4863 1.91526 26.4561 1.92377C25.6458 2.64159 18.6218 8.8958 19.8213 12.3461C21.1107 15.9997 25.8764 15.1811 23.1155 10.2436C20.8994 6.1977 14.9435 2.32251 12.8933 1.07082Z" fill="#FF720D" stroke="#FF720D" stroke-width="1.5" stroke-miterlimit="9" stroke-linecap="round"/>
</svg>
