<svg width="19" height="15" viewBox="0 0 19 15" fill="none" xmlns="http://www.w3.org/2000/svg">
<path d="M12.4432 0.0337745L8.62574 1.32891C8.60564 1.31976 8.59649 1.33985 8.60744 1.3691C8.68407 1.57388 9.10184 2.73486 8.83584 4.11836C8.56427 5.62068 6.07897 7.40112 4.63145 4.55779C3.98163 3.26687 5.72644 1.7802 6.11966 1.44963C6.14892 1.43869 6.11786 1.40028 6.09776 1.39113C5.52742 1.47116 2.82195 1.81657 1.77853 1.38996C1.75843 1.3808 1.72918 1.39175 1.74013 1.421C2.59559 4.01899 0.646321 7.76658 0.413903 8.17037C0.40475 8.19047 0.415692 8.21973 0.435792 8.22888L7.28993 11.3501L14.1441 14.4714C14.1642 14.4806 14.1934 14.4696 14.2026 14.4495C14.3747 14.0182 15.9019 10.0784 18.4232 9.0182C18.4525 9.00726 18.4415 8.978 18.4214 8.96885C17.3945 8.45268 15.879 6.18508 15.585 5.71146C15.5741 5.68221 15.5448 5.69315 15.5265 5.73335C15.5554 6.25614 15.5794 8.5483 14.1589 8.89643C11.0547 9.69123 10.7661 6.64764 11.7303 5.43643C12.5901 4.34762 13.7493 3.8805 13.9541 3.80387C13.9833 3.79292 13.9632 3.78377 13.9724 3.76367L12.4432 0.0337745Z" fill="url(#paint0_linear_11_2465)"/>
<defs>
<linearGradient id="paint0_linear_11_2465" x1="12.2009" y1="-0.716739" x2="14.1513" y2="37.628" gradientUnits="userSpaceOnUse">
<stop stop-color="#FF470D"/>
<stop offset="1" stop-color="#F79726"/>
</linearGradient>
</defs>
</svg>
