<svg width="246" height="200" viewBox="0 0 246 200" fill="none" xmlns="http://www.w3.org/2000/svg">
<path d="M152.069 14.4443C152.069 14.4443 124.785 1.76136 115.458 22.5391C106.468 42.509 121.61 51.6932 121.61 51.6932C121.61 51.6932 98.5247 112.911 73.4635 100.209C48.6716 87.6198 50.263 45.2525 50.263 45.2525C50.263 45.2525 67.1889 47.9054 71.8013 27.0531C75.1932 11.3857 57.7709 -4.44814 37.1018 3.35662C16.7019 11.2741 18.8901 34.0228 33.2244 42.8689C33.4375 94.5348 6.54625 118.721 1.71266 122.71C1.33071 122.867 1.37463 123.518 1.91317 123.744L91.311 161.153L180.709 198.562C180.978 198.675 181.36 198.518 181.585 197.98C181.033 191.737 179.382 155.606 216.328 119.49C232.578 123.759 250.429 109.079 241.747 88.9921C233.066 68.9054 209.559 67.6121 200.513 80.9133C188.63 98.7233 202.67 109.028 202.67 109.028C202.67 109.028 173.613 139.903 147.244 131.083C120.874 122.263 147.999 62.7357 147.999 62.7357C147.999 62.7357 165.169 67.0729 173.082 46.6522C181.332 25.4238 153.146 14.895 153.146 14.895" stroke="url(#paint0_linear_78_1489)" stroke-width="2" stroke-miterlimit="10" stroke-linecap="round"/>
<defs>
<linearGradient id="paint0_linear_78_1489" x1="152.612" y1="14.6604" x2="80.0856" y2="189.855" gradientUnits="userSpaceOnUse">
<stop stop-color="#FCB540"/>
<stop offset="1" stop-color="#FCB540" stop-opacity="0"/>
</linearGradient>
</defs>
</svg>
