<svg width="20" height="20" viewBox="0 0 20 20" fill="none" xmlns="http://www.w3.org/2000/svg">
<path fill-rule="evenodd" clip-rule="evenodd" d="M6.25 5V5.625H4.59417C3.79417 5.625 3.12417 6.22833 3.04 7.02417L1.9875 17.0242C1.96461 17.242 1.98776 17.4621 2.05543 17.6704C2.12311 17.8787 2.23381 18.0704 2.38035 18.2331C2.52689 18.3958 2.70601 18.5259 2.90607 18.615C3.10613 18.704 3.32268 18.75 3.54167 18.75H16.4583C16.6773 18.75 16.8939 18.704 17.0939 18.615C17.294 18.5259 17.4731 18.3958 17.6197 18.2331C17.7662 18.0704 17.8769 17.8787 17.9446 17.6704C18.0123 17.4621 18.0354 17.242 18.0125 17.0242L16.96 7.02417C16.9196 6.64012 16.7385 6.28463 16.4515 6.02626C16.1645 5.76789 15.792 5.62494 15.4058 5.625H13.75V5C13.75 4.00544 13.3549 3.05161 12.6517 2.34835C11.9484 1.64509 10.9946 1.25 10 1.25C9.00544 1.25 8.05161 1.64509 7.34835 2.34835C6.64509 3.05161 6.25 4.00544 6.25 5ZM10 2.5C9.33696 2.5 8.70108 2.76339 8.23224 3.23223C7.76339 3.70107 7.5 4.33696 7.5 5V5.625H12.5V5C12.5 4.33696 12.2366 3.70107 11.7678 3.23223C11.2989 2.76339 10.663 2.5 10 2.5ZM7.5 9.375C7.5 10.038 7.76339 10.6739 8.23224 11.1428C8.70108 11.6116 9.33696 11.875 10 11.875C10.663 11.875 11.2989 11.6116 11.7678 11.1428C12.2366 10.6739 12.5 10.038 12.5 9.375V8.75C12.5 8.58424 12.5659 8.42527 12.6831 8.30806C12.8003 8.19085 12.9592 8.125 13.125 8.125C13.2908 8.125 13.4497 8.19085 13.5669 8.30806C13.6842 8.42527 13.75 8.58424 13.75 8.75V9.375C13.75 10.3696 13.3549 11.3234 12.6517 12.0266C11.9484 12.7299 10.9946 13.125 10 13.125C9.00544 13.125 8.05161 12.7299 7.34835 12.0266C6.64509 11.3234 6.25 10.3696 6.25 9.375V8.75C6.25 8.58424 6.31585 8.42527 6.43306 8.30806C6.55027 8.19085 6.70924 8.125 6.875 8.125C7.04076 8.125 7.19973 8.19085 7.31694 8.30806C7.43415 8.42527 7.5 8.58424 7.5 8.75V9.375Z" fill="#FF720D"/>
</svg>
