<svg width="93" height="93" viewBox="0 0 93 93" fill="none" xmlns="http://www.w3.org/2000/svg">
<path d="M74.0308 60.683H62.5308C61.7369 60.683 61.0933 61.3266 61.0933 62.1205V73.6205C61.0933 74.4144 61.7369 75.058 62.5308 75.058H74.0308C74.8247 75.058 75.4683 74.4144 75.4683 73.6205V62.1205C75.4683 61.3266 74.8247 60.683 74.0308 60.683Z" fill="#C5C5C5"/>
<path d="M59.6558 49.183H51.0308C50.2369 49.183 49.5933 49.8266 49.5933 50.6205V59.2455C49.5933 60.0394 50.2369 60.683 51.0308 60.683H59.6558C60.4497 60.683 61.0933 60.0394 61.0933 59.2455V50.6205C61.0933 49.8266 60.4497 49.183 59.6558 49.183Z" fill="#C5C5C5"/>
<path d="M85.5308 75.058H76.9058C76.1119 75.058 75.4683 75.7016 75.4683 76.4955V85.1205C75.4683 85.9144 76.1119 86.558 76.9058 86.558H85.5308C86.3247 86.558 86.9683 85.9144 86.9683 85.1205V76.4955C86.9683 75.7016 86.3247 75.058 85.5308 75.058Z" fill="#C5C5C5"/>
<path d="M85.5308 49.183H79.7808C78.9869 49.183 78.3433 49.8266 78.3433 50.6205V56.3705C78.3433 57.1644 78.9869 57.808 79.7808 57.808H85.5308C86.3247 57.808 86.9683 57.1644 86.9683 56.3705V50.6205C86.9683 49.8266 86.3247 49.183 85.5308 49.183Z" fill="#C5C5C5"/>
<path d="M56.7808 77.933H51.0308C50.2369 77.933 49.5933 78.5766 49.5933 79.3705V85.1205C49.5933 85.9144 50.2369 86.558 51.0308 86.558H56.7808C57.5747 86.558 58.2183 85.9144 58.2183 85.1205V79.3705C58.2183 78.5766 57.5747 77.933 56.7808 77.933Z" fill="#C5C5C5"/>
<path d="M74.0308 17.558H62.5308C61.7369 17.558 61.0933 18.2016 61.0933 18.9955V30.4955C61.0933 31.2894 61.7369 31.933 62.5308 31.933H74.0308C74.8247 31.933 75.4683 31.2894 75.4683 30.4955V18.9955C75.4683 18.2016 74.8247 17.558 74.0308 17.558Z" fill="#C5C5C5"/>
<path d="M81.2183 8.93298H55.3433C53.7554 8.93298 52.4683 10.2202 52.4683 11.808V37.683C52.4683 39.2708 53.7554 40.558 55.3433 40.558H81.2183C82.8061 40.558 84.0933 39.2708 84.0933 37.683V11.808C84.0933 10.2202 82.8061 8.93298 81.2183 8.93298Z" stroke="#C5C5C5" stroke-width="5.75" stroke-linecap="round" stroke-linejoin="round"/>
<path d="M30.9058 17.558H19.4058C18.6119 17.558 17.9683 18.2016 17.9683 18.9955V30.4955C17.9683 31.2894 18.6119 31.933 19.4058 31.933H30.9058C31.6997 31.933 32.3433 31.2894 32.3433 30.4955V18.9955C32.3433 18.2016 31.6997 17.558 30.9058 17.558Z" fill="#C5C5C5"/>
<path d="M38.0933 8.93298H12.2183C10.6304 8.93298 9.34326 10.2202 9.34326 11.808V37.683C9.34326 39.2708 10.6304 40.558 12.2183 40.558H38.0933C39.6811 40.558 40.9683 39.2708 40.9683 37.683V11.808C40.9683 10.2202 39.6811 8.93298 38.0933 8.93298Z" stroke="#C5C5C5" stroke-width="5.75" stroke-linecap="round" stroke-linejoin="round"/>
<path d="M30.9058 60.683H19.4058C18.6119 60.683 17.9683 61.3266 17.9683 62.1205V73.6205C17.9683 74.4144 18.6119 75.058 19.4058 75.058H30.9058C31.6997 75.058 32.3433 74.4144 32.3433 73.6205V62.1205C32.3433 61.3266 31.6997 60.683 30.9058 60.683Z" fill="#C5C5C5"/>
<path d="M38.0933 52.058H12.2183C10.6304 52.058 9.34326 53.3452 9.34326 54.933V80.808C9.34326 82.3958 10.6304 83.683 12.2183 83.683H38.0933C39.6811 83.683 40.9683 82.3958 40.9683 80.808V54.933C40.9683 53.3452 39.6811 52.058 38.0933 52.058Z" stroke="#C5C5C5" stroke-width="5.75" stroke-linecap="round" stroke-linejoin="round"/>
</svg>
