<svg width="23" height="22" viewBox="0 0 23 22" fill="none" xmlns="http://www.w3.org/2000/svg">
<g clip-path="url(#clip0_343_11868)">
<path opacity="0.3" d="M13.9649 15.3528C13.609 14.9969 13.609 14.4198 13.9649 14.0638C14.3209 13.7079 14.898 13.7079 15.2539 14.0638L18.8998 17.7097C19.2557 18.0656 19.2557 18.6427 18.8998 18.9987C18.5438 19.3546 17.9667 19.3546 17.6107 18.9987L13.9649 15.3528Z" fill="white"/>
<path d="M10.9635 14.7083C13.4805 14.7083 15.5208 12.6679 15.5208 10.151C15.5208 7.6341 13.4805 5.59373 10.9635 5.59373C8.44659 5.59373 6.40623 7.6341 6.40623 10.151C6.40623 12.6679 8.44659 14.7083 10.9635 14.7083ZM10.9635 16.5312C7.43983 16.5312 4.58331 13.6747 4.58331 10.151C4.58331 6.62733 7.43983 3.77081 10.9635 3.77081C14.4872 3.77081 17.3438 6.62733 17.3438 10.151C17.3438 13.6747 14.4872 16.5312 10.9635 16.5312Z" fill="white"/>
</g>
<defs>
<clipPath id="clip0_343_11868">
<rect width="21.875" height="21.875" fill="white" transform="translate(0.9375 0.125)"/>
</clipPath>
</defs>
</svg>
