<svg width="30" height="30" viewBox="0 0 30 30" fill="none" xmlns="http://www.w3.org/2000/svg">
<path d="M15.1503 17.7697C16.6485 17.7697 17.8631 16.5552 17.8631 15.0569C17.8631 13.5587 16.6485 12.3441 15.1503 12.3441C13.6521 12.3441 12.4375 13.5587 12.4375 15.0569C12.4375 16.5552 13.6521 17.7697 15.1503 17.7697Z" fill="#DADADA"/>
<path d="M27.267 17.5436L27.2404 17.5221L25.4568 16.1233C25.3438 16.034 25.2537 15.9191 25.1937 15.7881C25.1338 15.6572 25.1058 15.5139 25.112 15.37V14.7166C25.1064 14.5737 25.1347 14.4314 25.1947 14.3015C25.2548 14.1716 25.3448 14.0578 25.4573 13.9695L27.2404 12.5701L27.267 12.5487C27.542 12.3196 27.7265 12.0001 27.7876 11.6475C27.8487 11.2948 27.7824 10.9319 27.6005 10.6237L25.1866 6.44711C25.1839 6.44316 25.1814 6.43901 25.1793 6.43467C24.9964 6.1307 24.7128 5.90039 24.3778 5.78373C24.0428 5.66706 23.6775 5.67142 23.3453 5.79603L23.3255 5.80338L21.2288 6.64717C21.0964 6.70068 20.9533 6.72198 20.8111 6.7093C20.6689 6.69663 20.5318 6.65034 20.411 6.57427C20.2256 6.45747 20.0372 6.34707 19.8458 6.24308C19.7217 6.17578 19.6151 6.08027 19.5347 5.96423C19.4543 5.84819 19.4023 5.71488 19.3829 5.57505L19.067 3.33755L19.0602 3.29686C18.9914 2.9503 18.8055 2.63797 18.5335 2.41237C18.2616 2.18677 17.9203 2.06164 17.567 2.05801H12.7337C12.3754 2.05916 12.0291 2.18671 11.7556 2.4182C11.4821 2.64968 11.2991 2.97025 11.2389 3.32342L11.2338 3.35507L10.919 5.59709C10.8997 5.73652 10.8481 5.86952 10.7683 5.98549C10.6885 6.10147 10.5828 6.19722 10.4595 6.26512C10.2675 6.36851 10.079 6.47821 9.89432 6.59405C9.77375 6.66966 9.63696 6.71559 9.49519 6.72807C9.35342 6.74054 9.21071 6.71921 9.07879 6.66583L6.98032 5.81807L6.96054 5.81016C6.62792 5.68541 6.26208 5.68122 5.92669 5.79832C5.5913 5.91542 5.30757 6.14639 5.12487 6.45106L5.11753 6.4635L2.70031 10.6429C2.51811 10.9515 2.45161 11.3147 2.5127 11.6678C2.57379 12.0209 2.75849 12.3407 3.03375 12.5701L3.06032 12.5916L4.84399 13.9904C4.95694 14.0798 5.04709 14.1946 5.10702 14.3256C5.16695 14.4566 5.19496 14.5999 5.18874 14.7438V15.3971C5.1944 15.5401 5.16605 15.6824 5.10602 15.8122C5.04599 15.9421 4.95599 16.0559 4.84342 16.1443L3.06032 17.5436L3.03375 17.5651C2.75876 17.7942 2.57422 18.1136 2.51313 18.4663C2.45204 18.8189 2.51839 19.1818 2.70031 19.49L5.11414 23.6666C5.11691 23.6706 5.11937 23.6747 5.12148 23.6791C5.30438 23.983 5.58797 24.2133 5.92299 24.33C6.25801 24.4467 6.62331 24.4423 6.95545 24.3177L6.97523 24.3104L9.07031 23.4666C9.20265 23.4131 9.34581 23.3918 9.488 23.4044C9.63018 23.4171 9.76732 23.4634 9.88811 23.5395C10.0735 23.6566 10.2619 23.767 10.4533 23.8707C10.5774 23.938 10.6839 24.0335 10.7643 24.1495C10.8447 24.2655 10.8967 24.3989 10.9161 24.5387L11.2304 26.7762L11.2372 26.8169C11.3061 27.164 11.4925 27.4768 11.7651 27.7024C12.0378 27.9281 12.3798 28.0529 12.7337 28.0557H17.567C17.9253 28.0546 18.2717 27.927 18.5452 27.6955C18.8186 27.4641 19.0016 27.1435 19.0619 26.7903L19.067 26.7587L19.3818 24.5166C19.4014 24.377 19.4534 24.2438 19.5337 24.1278C19.614 24.0118 19.7203 23.9162 19.8441 23.8486C20.0374 23.7446 20.2262 23.6344 20.4093 23.5197C20.5298 23.4441 20.6666 23.3981 20.8084 23.3857C20.9502 23.3732 21.0929 23.3945 21.2248 23.4479L23.3233 24.2928L23.3431 24.3007C23.6757 24.4257 24.0416 24.43 24.377 24.3129C24.7125 24.1958 24.9962 23.9647 25.1787 23.6598C25.181 23.6556 25.1834 23.6514 25.1861 23.6474L27.5999 19.4714C27.7824 19.1629 27.8492 18.7995 27.7882 18.4462C27.7272 18.093 27.5424 17.773 27.267 17.5436ZM19.6666 15.2694C19.6255 16.1446 19.3309 16.989 18.8188 17.6999C18.3066 18.4108 17.5989 18.9575 16.7818 19.2737C15.9646 19.5899 15.0732 19.6618 14.216 19.4807C13.3587 19.2997 12.5725 18.8735 11.953 18.2539C11.3335 17.6343 10.9074 16.848 10.7264 15.9908C10.5455 15.1335 10.6175 14.2421 10.9338 13.425C11.25 12.6079 11.7969 11.9003 12.5078 11.3882C13.2188 10.8761 14.0632 10.5817 14.9384 10.5406C15.5668 10.513 16.194 10.6163 16.7802 10.8442C17.3664 11.0721 17.8988 11.4194 18.3435 11.8642C18.7882 12.3089 19.1355 12.8413 19.3633 13.4276C19.5911 14.0138 19.6944 14.641 19.6666 15.2694Z" fill="white"/>
</svg>
