<svg width="512" height="512" viewBox="0 0 512 512" fill="none" xmlns="http://www.w3.org/2000/svg">
<path d="M145.61 464H366.39C386.19 464 401.94 447.71 399.81 428.94C386.06 308 304 310 304 256C304 202 387.11 205 399.8 83.06C401.8 64.28 386.19 48 366.39 48H145.61C125.81 48 110.24 64.28 112.2 83.06C124.89 205 208 201 208 256C208 311 125.94 308 112.2 428.94C110.06 447.71 125.81 464 145.61 464Z" stroke="#FF470D" stroke-width="32" stroke-linecap="round" stroke-linejoin="round"/>
<path d="M343.3 432H169.13C153.53 432 149.13 414 160.07 402.84C186.55 376 240 356.78 240 326V224C240 204.15 202 189 178.49 156.8C174.61 151.49 175 144 184.86 144H327.59C336 144 337.82 151.43 333.99 156.75C310.82 189 272 204.05 272 224V326C272 356.53 327.71 373 352.4 402.87C362.35 414.91 358.87 432 343.3 432Z" fill="#FF470D"/>
</svg>
