<svg width="213" height="61" viewBox="0 0 213 61" fill="none" xmlns="http://www.w3.org/2000/svg">
<path d="M36.3339 43.5758L27.8493 41.4365C30.6492 39.7013 33.0888 37.4433 35.0351 34.7856C36.946 32.1577 37.9015 29.3471 37.9015 26.3538C37.9015 23.5049 37.0189 21.1685 35.2536 19.3446C33.4884 17.5206 30.7091 16.6086 26.9159 16.6086C24.8892 16.5883 22.8832 17.0166 21.0415 17.8628C19.2415 18.7119 17.7331 20.0747 16.706 21.7795C15.5952 23.5557 14.9939 25.8198 14.9019 28.5719H2.25732C1.66019 28.5719 1.08739 28.8085 0.664313 29.23C0.24124 29.6514 0.00236956 30.2233 0 30.8205L0 35.5614C-9.34813e-08 35.8578 0.0584003 36.1513 0.171863 36.4251C0.285326 36.6989 0.451628 36.9476 0.661263 37.1571C0.870898 37.3666 1.11976 37.5327 1.39362 37.646C1.66748 37.7593 1.96097 37.8174 2.25732 37.8172H4.7153V57.7483C4.71552 58.1083 4.80176 58.463 4.96682 58.7829C5.13189 59.1028 5.371 59.3787 5.66424 59.5875C5.95748 59.7962 6.29636 59.9319 6.65265 59.9832C7.00894 60.0345 7.37232 59.9999 7.71252 59.8822L13.5654 57.8522C14.0085 57.6979 14.3926 57.4096 14.6644 57.0273C14.9363 56.6449 15.0826 56.1875 15.0829 55.7183V49.4025L35.5313 51.6905C35.8471 51.7258 36.1667 51.694 36.4694 51.5973C36.772 51.5006 37.0508 51.341 37.2876 51.1291C37.5243 50.9172 37.7137 50.6577 37.8432 50.3676C37.9728 50.0774 38.0397 49.7632 38.0395 49.4455V45.7635C38.0392 45.261 37.8712 44.773 37.5623 44.3767C37.2534 43.9805 36.8211 43.6986 36.3339 43.5758ZM28.2721 24.7502C28.2744 24.4804 28.3836 24.2226 28.5757 24.0332C28.7678 23.8438 29.0271 23.7382 29.2968 23.7396L30.4828 23.7486C30.6164 23.7495 30.7486 23.7768 30.8717 23.8288C30.9948 23.8808 31.1064 23.9566 31.2003 24.0517C31.2941 24.1469 31.3683 24.2596 31.4185 24.3835C31.4688 24.5073 31.4942 24.6398 31.4932 24.7735V25.8593C31.4928 25.9928 31.4659 26.1249 31.4141 26.248C31.3624 26.3712 31.2868 26.4828 31.1917 26.5766C31.0966 26.6703 30.9839 26.7444 30.8601 26.7944C30.7363 26.8444 30.6038 26.8694 30.4703 26.868H29.2807C29.0119 26.8656 28.755 26.7568 28.5663 26.5654C28.3776 26.374 28.2724 26.1155 28.2739 25.8467L28.2721 24.7502ZM24.5439 24.7251C24.5467 24.4556 24.6561 24.1983 24.8482 24.0092C25.0402 23.8202 25.2992 23.7149 25.5687 23.7164H26.7582C27.0275 23.7187 27.2848 23.8277 27.4739 24.0195C27.6629 24.2112 27.7683 24.4701 27.7669 24.7394V25.827C27.7645 26.0965 27.6556 26.354 27.4639 26.5434C27.2722 26.7327 27.0133 26.8385 26.7439 26.8375L25.5561 26.8286C25.4226 26.8281 25.2904 26.8013 25.1672 26.7497C25.0441 26.6981 24.9323 26.6227 24.8383 26.5279C24.7442 26.433 24.6698 26.3205 24.6193 26.1969C24.5688 26.0732 24.5432 25.9409 24.5439 25.8073V24.7251ZM20.4664 24.7C20.4673 24.5666 20.4945 24.4347 20.5464 24.3118C20.5984 24.1889 20.674 24.0774 20.769 23.9837C20.864 23.8901 20.9765 23.816 21.1001 23.7659C21.2237 23.7157 21.356 23.6903 21.4894 23.6913H22.6789C22.8123 23.692 22.9443 23.719 23.0672 23.7707C23.1902 23.8224 23.3018 23.8978 23.3956 23.9926C23.4895 24.0875 23.5637 24.1998 23.6141 24.3234C23.6645 24.4469 23.6901 24.5791 23.6893 24.7126L23.6786 26.2033C23.6774 26.3367 23.7026 26.4691 23.7527 26.5929C23.8028 26.7166 23.8768 26.8292 23.9705 26.9242C24.0642 27.0193 24.1758 27.0949 24.2988 27.1467C24.4217 27.1986 24.5538 27.2256 24.6872 27.2263L28.2542 27.2514H29.5781H30.4577C30.5911 27.2524 30.723 27.2796 30.8459 27.3315C30.9688 27.3834 31.0803 27.459 31.1739 27.554C31.2676 27.649 31.3416 27.7616 31.3918 27.8852C31.442 28.0088 31.4673 28.1411 31.4664 28.2745L31.4359 32.9867C31.4335 33.256 31.3245 33.5134 31.1328 33.7025C30.9411 33.8915 30.6822 33.9969 30.4129 33.9955H29.227C29.0933 33.9945 28.9612 33.9673 28.8381 33.9153C28.715 33.8632 28.6033 33.7875 28.5095 33.6923C28.4157 33.5972 28.3415 33.4844 28.2912 33.3606C28.241 33.2368 28.2156 33.1042 28.2165 32.9706V31.4817C28.2175 31.3483 28.1921 31.216 28.142 31.0924C28.0918 30.9687 28.0177 30.8562 27.9241 30.7612C27.8304 30.6662 27.719 30.5906 27.5961 30.5387C27.4732 30.4867 27.3413 30.4595 27.2079 30.4586L22.8061 30.4317L21.4392 30.421C21.3056 30.4203 21.1735 30.3932 21.0505 30.3414C20.9274 30.2896 20.8157 30.214 20.7218 30.119C20.628 30.024 20.5538 29.9114 20.5035 29.7876C20.4532 29.6639 20.4278 29.5315 20.4288 29.3979L20.4664 24.7ZM23.6481 32.9545C23.6474 33.0878 23.6205 33.2197 23.5687 33.3426C23.517 33.4654 23.4416 33.5769 23.3467 33.6706C23.2519 33.7643 23.1395 33.8384 23.016 33.8886C22.8925 33.9388 22.7603 33.9641 22.627 33.9632H21.4374C21.304 33.9625 21.172 33.9355 21.0491 33.8838C20.9261 33.8321 20.8145 33.7567 20.7207 33.6619C20.6269 33.567 20.5526 33.4546 20.5022 33.3311C20.4518 33.2076 20.4263 33.0753 20.427 32.9419V31.8526C20.4289 31.5833 20.5374 31.3257 20.7288 31.1363C20.9202 30.9469 21.1789 30.8411 21.4481 30.842L22.6377 30.851C22.9062 30.8524 23.1632 30.9601 23.3525 31.1504C23.5419 31.3408 23.6481 31.5984 23.6481 31.8669V32.9545ZM27.3727 32.9778C27.3723 33.1112 27.3454 33.2433 27.2938 33.3664C27.2422 33.4895 27.1668 33.6012 27.0719 33.6951C26.9771 33.789 26.8646 33.8632 26.741 33.9135C26.6173 33.9638 26.485 33.9892 26.3516 33.9883H25.162C25.0284 33.9876 24.8963 33.9606 24.7732 33.9087C24.6502 33.8569 24.5385 33.7813 24.4446 33.6863C24.3508 33.5913 24.2766 33.4787 24.2263 33.3549C24.176 33.2312 24.1506 33.0988 24.1516 32.9652V31.8776C24.1535 31.608 24.2622 31.3502 24.454 31.1608C24.6458 30.9713 24.9049 30.8657 25.1745 30.8671H26.3641C26.6335 30.87 26.8909 30.9793 27.0799 31.1714C27.2689 31.3634 27.3742 31.6225 27.3727 31.892V32.9778Z" fill="#FF720D"/>
<path d="M26.1132 1.28578C26.1974 1.97201 26.6704 10.8249 26.6704 10.8249C26.6704 10.8249 27.0179 12.7958 27.2759 14.213C26.3882 14.1103 25.4909 14.1236 24.6065 14.2525C22.7111 14.5152 20.7524 15.3191 18.7303 16.6641C15.8949 18.549 14.0879 20.7092 13.3092 23.1448C12.1644 22.446 10.7115 21.4373 10.7115 21.4373C10.7115 21.4373 2.72842 17.5779 2.12826 17.2339C1.5281 16.8899 0.650255 15.9403 2.17484 15.3562C4.39275 14.9924 11.0483 13.8959 11.0483 13.8959C11.0483 13.8959 10.2797 5.80808 10.9748 4.53238C12.4188 4.38545 19.5741 8.22511 19.5741 8.22511C19.5741 8.22511 23.1572 2.51311 24.3611 0.606716C25.4916 -0.577612 26.0308 0.604924 26.1132 1.28578Z" fill="#FF720D"/>
<path d="M44.4512 32.5621C45.1383 31.1222 46.2159 29.9041 47.5613 29.0468C48.8783 28.2262 50.4026 27.7997 51.9541 27.8176C53.2185 27.7896 54.4697 28.0798 55.5927 28.6616C56.5786 29.1716 57.4099 29.9362 58.0005 30.8761V28.099H64.0111V47.7129H58.0005V44.9357C57.39 45.8719 56.5483 46.6346 55.5569 47.1503C54.4345 47.7319 53.1839 48.0221 51.9201 47.9942C50.3764 48.0068 48.8623 47.5711 47.5613 46.74C46.2144 45.8688 45.1373 44.6389 44.4512 43.1888C43.6904 41.6539 43.3094 39.8789 43.3082 37.8638C43.307 35.8487 43.688 34.0815 44.4512 32.5621ZM56.7518 34.3538C56.359 33.9442 55.8877 33.6179 55.366 33.3945C54.8443 33.1711 54.2829 33.055 53.7154 33.0534C53.1479 33.0517 52.5859 33.1644 52.0629 33.3848C51.5399 33.6051 51.0666 33.9286 50.6714 34.3359C49.8354 35.1924 49.4173 36.3701 49.4173 37.8692C49.4173 39.3683 49.8354 40.5574 50.6714 41.4365C51.0612 41.8514 51.5315 42.1824 52.0536 42.4092C52.5757 42.6359 53.1385 42.7538 53.7078 42.7555C54.277 42.7571 54.8405 42.6426 55.364 42.4189C55.8874 42.1952 56.3596 41.867 56.7518 41.4544C57.5879 40.5872 58.0059 39.4035 58.0059 37.9032C58.0059 36.403 57.5879 35.2204 56.7518 34.3556V34.3538Z" fill="#FF720D"/>
<path d="M74.5543 50.2446C74.5543 52.6574 73.9452 54.3972 72.727 55.4638C71.5087 56.5305 69.8098 57.0639 67.6301 57.0639H65.276V51.9664H66.7092C67.3649 51.9664 67.8337 51.8374 68.1156 51.5794C68.3974 51.3214 68.5378 50.8997 68.5366 50.3144V28.0971H74.5471L74.5543 50.2446ZM68.9486 25.1282C68.6261 24.839 68.3697 24.4836 68.1969 24.0863C68.0241 23.6889 67.9389 23.2591 67.9472 22.8259C67.9379 22.3886 68.0224 21.9544 68.1952 21.5526C68.368 21.1508 68.6249 20.7907 68.9486 20.4966C69.6163 19.8767 70.4774 19.5661 71.532 19.5649C72.5627 19.5649 73.4119 19.8755 74.0796 20.4966C74.4033 20.7907 74.6602 21.1508 74.833 21.5526C75.0058 21.9544 75.0903 22.3886 75.081 22.8259C75.0893 23.2591 75.0041 23.6889 74.8313 24.0863C74.6585 24.4836 74.4021 24.839 74.0796 25.1282C73.4107 25.7494 72.5615 26.0599 71.532 26.0599C70.4774 26.0599 69.6163 25.7494 68.9486 25.1282Z" fill="#FF720D"/>
<path d="M79.0063 32.5621C79.6927 31.1218 80.7705 29.9036 82.1164 29.0468C83.4334 28.2262 84.9576 27.7997 86.5092 27.8176C87.7736 27.7896 89.0248 28.0798 90.1478 28.6616C91.1336 29.1716 91.965 29.9362 92.5556 30.8761V28.099H98.5644V47.7129H92.5502V44.9357C91.9417 45.8709 91.1026 46.6336 90.1137 47.1503C88.9913 47.7319 87.7408 48.0221 86.4769 47.9942C84.9333 48.0068 83.4191 47.5711 82.1182 46.74C80.7709 45.8718 79.6931 44.6443 79.0063 43.196C78.2431 41.6611 77.8621 39.8861 77.8633 37.871C77.8645 35.8559 78.2455 34.0863 79.0063 32.5621ZM91.3069 34.3538C90.9141 33.9442 90.4427 33.6179 89.921 33.3945C89.3994 33.1711 88.838 33.055 88.2705 33.0534C87.703 33.0517 87.1409 33.1644 86.6179 33.3848C86.0949 33.6051 85.6217 33.9286 85.2265 34.3359C84.3904 35.1924 83.9724 36.3701 83.9724 37.8692C83.9724 39.3683 84.3904 40.5574 85.2265 41.4365C85.6162 41.8514 86.0865 42.1824 86.6086 42.4092C87.1307 42.6359 87.6936 42.7538 88.2628 42.7555C88.832 42.7571 89.3956 42.6426 89.919 42.4189C90.4424 42.1952 90.9147 41.867 91.3069 41.4544C92.1429 40.5872 92.561 39.4035 92.561 37.9032C92.561 36.403 92.1411 35.2204 91.3015 34.3556L91.3069 34.3538Z" fill="#FF720D"/>
<path d="M106.836 46.7633C105.319 45.9611 104.063 44.7412 103.217 43.2479C102.338 41.725 101.898 39.944 101.898 37.905C101.898 35.8911 102.343 34.1161 103.233 32.58C104.091 31.0781 105.359 29.8522 106.89 29.0468C108.505 28.2385 110.285 27.8177 112.091 27.8177C113.897 27.8177 115.678 28.2385 117.293 29.0468C118.823 29.8523 120.091 31.0782 120.948 32.58C121.839 34.115 122.284 35.8899 122.284 37.905C122.284 39.9201 121.832 41.6957 120.928 43.2318C120.058 44.7351 118.778 45.9599 117.237 46.7633C115.625 47.5969 113.832 48.0197 112.017 47.9942C110.214 48.0217 108.434 47.5986 106.836 46.7633ZM114.955 41.5261C115.765 40.6816 116.169 39.4746 116.168 37.905C116.167 36.3355 115.774 35.1291 114.991 34.2858C114.619 33.8874 114.169 33.5695 113.67 33.3516C113.17 33.1337 112.631 33.0204 112.086 33.0187C111.541 33.0171 111.002 33.127 110.501 33.3419C110 33.5567 109.548 33.8718 109.174 34.2678C108.4 35.104 108.014 36.3164 108.015 37.905C108.015 39.477 108.395 40.684 109.156 41.5261C109.512 41.9341 109.953 42.2588 110.448 42.4774C110.944 42.696 111.481 42.803 112.022 42.7911C112.573 42.7983 113.118 42.6894 113.624 42.4715C114.129 42.2535 114.583 41.9314 114.955 41.5261Z" fill="#FF720D"/>
<path d="M136.59 42.6154V47.7129H133.531C131.353 47.7129 129.654 47.1795 128.435 46.1129C127.215 45.0462 126.606 43.3064 126.607 40.8936V33.0906H124.217V28.0989H126.607V23.3186H132.618V28.0989H136.559V33.0906H132.618V40.9635C132.618 41.5494 132.757 41.9722 133.039 42.2284C133.32 42.4846 133.789 42.6154 134.445 42.6154H136.59Z" fill="#FF720D"/>
<path d="M148.539 28.6615C149.655 28.0783 150.901 27.788 152.16 27.8176C153.711 27.7999 155.235 28.2264 156.553 29.0467C157.898 29.9046 158.975 31.1225 159.663 32.5621C160.425 34.0862 160.806 35.8559 160.806 37.871C160.806 39.886 160.425 41.661 159.663 43.196C158.976 44.6456 157.899 45.8753 156.553 46.7471C155.24 47.5811 153.714 48.0167 152.16 48.0013C150.907 48.0268 149.668 47.7366 148.557 47.1574C147.573 46.6477 146.732 45.8984 146.113 44.9787V57.071H140.097V28.0989H146.108V30.8761C146.716 29.9424 147.553 29.18 148.539 28.6615ZM153.442 34.3377C153.047 33.9214 152.57 33.5923 152.04 33.3713C151.51 33.1504 150.94 33.0426 150.366 33.0548C149.796 33.0449 149.23 33.1557 148.705 33.3799C148.18 33.604 147.708 33.9365 147.321 34.3556C146.485 35.2228 146.067 36.4059 146.067 37.905C146.067 39.4041 146.485 40.5878 147.321 41.4562C147.715 41.8677 148.188 42.1948 148.712 42.4178C149.237 42.6407 149.801 42.7548 150.37 42.7531C150.94 42.7515 151.503 42.634 152.026 42.408C152.549 42.182 153.021 41.8521 153.412 41.4383C154.256 40.5603 154.678 39.3712 154.677 37.871C154.676 36.3707 154.264 35.1929 153.442 34.3377Z" fill="#FF720D"/>
<path d="M167.139 47.5626C166.624 47.5626 166.201 47.4431 165.87 47.2041C165.558 46.9651 165.355 46.6434 165.264 46.2389C165.19 45.8345 165.273 45.384 165.512 44.8876L172.572 29.4167C172.866 28.7916 173.215 28.3412 173.62 28.0654C174.024 27.7713 174.493 27.6242 175.026 27.6242C175.559 27.6242 176.028 27.7713 176.432 28.0654C176.837 28.3412 177.177 28.7916 177.453 29.4167L184.568 44.8876C184.807 45.384 184.889 45.8437 184.816 46.2665C184.761 46.671 184.577 46.9927 184.264 47.2317C183.952 47.4523 183.547 47.5626 183.051 47.5626C182.426 47.5626 181.939 47.4156 181.589 47.1214C181.258 46.8273 180.964 46.3676 180.707 45.7425L179.052 41.9093L180.762 43.0951H169.262L170.972 41.9093L169.345 45.7425C169.069 46.386 168.775 46.8548 168.463 47.149C168.168 47.4248 167.727 47.5626 167.139 47.5626ZM174.971 32.4227L171.441 40.8338L170.696 39.7582H179.328L178.583 40.8338L175.026 32.4227H174.971ZM189.502 47.5626C188.804 47.5626 188.27 47.3696 187.903 46.9835C187.535 46.5974 187.351 46.0551 187.351 45.3565V30.051C187.351 29.334 187.535 28.7916 187.903 28.4239C188.289 28.0562 188.831 27.8724 189.53 27.8724H196.231C198.4 27.8724 200.073 28.4239 201.25 29.527C202.427 30.6117 203.015 32.1285 203.015 34.0773C203.015 36.0261 202.427 37.5521 201.25 38.6552C200.073 39.7582 198.4 40.3098 196.231 40.3098H191.626V45.3565C191.626 46.0551 191.442 46.5974 191.074 46.9835C190.725 47.3696 190.201 47.5626 189.502 47.5626ZM191.626 37.0005H195.514C196.617 37.0005 197.454 36.7523 198.024 36.2559C198.612 35.7595 198.906 35.0333 198.906 34.0773C198.906 33.1213 198.612 32.4043 198.024 31.9263C197.454 31.4483 196.617 31.2093 195.514 31.2093H191.626V37.0005ZM207.815 47.5626C207.117 47.5626 206.583 47.3696 206.216 46.9835C205.848 46.5974 205.664 46.0551 205.664 45.3565V29.8304C205.664 29.1318 205.848 28.5894 206.216 28.2033C206.583 27.8172 207.117 27.6242 207.815 27.6242C208.495 27.6242 209.019 27.8172 209.387 28.2033C209.755 28.5894 209.939 29.1318 209.939 29.8304V45.3565C209.939 46.0551 209.755 46.5974 209.387 46.9835C209.038 47.3696 208.514 47.5626 207.815 47.5626Z" fill="#20283E"/>
</svg>
