<svg xmlns="http://www.w3.org/2000/svg" viewBox="0 0 897.59 334.36"><defs><style>.cls-1{fill:#fff;}</style></defs><g id="Layer_2" data-name="Layer 2"><g id="Layer_1-2" data-name="Layer 1"><path class="cls-1" d="M202.81,242.65l-47.36-11.94a143.23,143.23,0,0,0,40.11-37.12q16-22,16-47.06,0-23.85-14.78-39.12T150.24,92.14a76.7,76.7,0,0,0-32.79,7A56.29,56.29,0,0,0,93.25,121q-9.3,14.87-10.07,37.91H12.6A12.6,12.6,0,0,0,0,171.46v26.46a12.59,12.59,0,0,0,12.6,12.59H26.32V321.75a12.61,12.61,0,0,0,16.73,11.91l32.67-11.33a12.62,12.62,0,0,0,8.47-11.91V275.17l114.14,12.77a12.6,12.6,0,0,0,14-12.53V254.86A12.6,12.6,0,0,0,202.81,242.65Zm-45-105.07a5.69,5.69,0,0,1,5.72-5.64l6.62.05a5.68,5.68,0,0,1,5.64,5.72l0,6.06a5.65,5.65,0,0,1-5.71,5.63l-6.64,0a5.67,5.67,0,0,1-5.62-5.7ZM137,137.44a5.69,5.69,0,0,1,5.72-5.63l6.64,0a5.68,5.68,0,0,1,5.63,5.71l0,6.07a5.69,5.69,0,0,1-5.71,5.64l-6.63-.05a5.67,5.67,0,0,1-5.65-5.7Zm-22.76-.14a5.67,5.67,0,0,1,5.71-5.63l6.64,0a5.67,5.67,0,0,1,5.64,5.7l-.06,8.32a5.66,5.66,0,0,0,5.63,5.71l19.91.14,7.39,0,4.91,0a5.67,5.67,0,0,1,5.63,5.71l-.17,26.3a5.68,5.68,0,0,1-5.71,5.63l-6.62,0a5.68,5.68,0,0,1-5.64-5.72l0-8.31a5.67,5.67,0,0,0-5.63-5.71l-24.57-.15-7.63-.06a5.67,5.67,0,0,1-5.64-5.71ZM132,183.37a5.66,5.66,0,0,1-5.7,5.63l-6.64,0a5.67,5.67,0,0,1-5.64-5.7l0-6.08a5.68,5.68,0,0,1,5.7-5.64l6.64.05A5.67,5.67,0,0,1,132,177.3Zm20.79.13a5.66,5.66,0,0,1-5.7,5.64l-6.64,0a5.67,5.67,0,0,1-5.64-5.71l0-6.07a5.68,5.68,0,0,1,5.71-5.64l6.64,0a5.69,5.69,0,0,1,5.63,5.72Z"/><path class="cls-1" d="M145.76,6.62c.47,3.83,3.11,53.24,3.11,53.24s1.94,11,3.38,18.91a57.5,57.5,0,0,0-14.9.22q-15.87,2.2-32.8,13.46-23.74,15.78-30.26,36.17c-6.39-3.9-14.5-9.53-14.5-9.53S15.23,97.55,11.88,95.63s-8.25-7.22.26-10.48C24.52,83.12,61.67,77,61.67,77s-4.29-45.14-.41-52.26c0,0,0,0,0,0,8.06-.82,48,20.61,48,20.61s20-31.88,26.72-42.52C142.29-3.78,145.3,2.82,145.76,6.62Z"/><path class="cls-1" d="M248.12,181.18a47.54,47.54,0,0,1,17.36-19.62A45.38,45.38,0,0,1,290,154.7a42.13,42.13,0,0,1,20.31,4.71,34.71,34.71,0,0,1,13.44,12.36v-15.5H357.3V265.74H323.75v-15.5a36.26,36.26,0,0,1-13.64,12.36,42.11,42.11,0,0,1-20.3,4.71,44.52,44.52,0,0,1-24.33-7,48.11,48.11,0,0,1-17.36-19.82q-6.37-12.85-6.38-29.72T248.12,181.18Zm68.66,10a23.58,23.58,0,0,0-33.94-.1q-7,7.17-7,19.72t7,19.91a23.35,23.35,0,0,0,33.94.1q7-7.26,7-19.82T316.78,191.19Z"/><path class="cls-1" d="M416.15,279.87q0,20.2-10.2,29.13t-28.45,8.93H364.36V289.48h8q5.49,0,7.85-2.16t2.35-7.06v-124h33.55ZM384.86,139.69a16.83,16.83,0,0,1-5.59-12.85,17.07,17.07,0,0,1,5.59-13q5.59-5.19,14.42-5.2,8.63,0,14.22,5.2a17.07,17.07,0,0,1,5.59,13,16.83,16.83,0,0,1-5.59,12.85q-5.6,5.2-14.22,5.2Q390.45,144.89,384.86,139.69Z"/><path class="cls-1" d="M441,181.18a47.47,47.47,0,0,1,17.36-19.62,45.38,45.38,0,0,1,24.52-6.86,42.13,42.13,0,0,1,20.31,4.71,34.71,34.71,0,0,1,13.44,12.36v-15.5h33.54V265.74H516.6v-15.5A36.26,36.26,0,0,1,503,262.6a42.11,42.11,0,0,1-20.3,4.71,44.52,44.52,0,0,1-24.33-7A48,48,0,0,1,441,240.53q-6.39-12.85-6.38-29.72T441,181.18Zm68.66,10a23.58,23.58,0,0,0-33.94-.1q-7,7.17-7,19.72t7,19.91a23.35,23.35,0,0,0,33.94.1q7-7.26,7-19.82T509.63,191.19Z"/><path class="cls-1" d="M596.34,260.44a50.17,50.17,0,0,1-20.2-19.62q-7.36-12.75-7.36-29.82,0-16.86,7.45-29.72a50.68,50.68,0,0,1,20.41-19.72,64.88,64.88,0,0,1,58.07,0,50.66,50.66,0,0,1,20.4,19.72q7.46,12.85,7.46,29.72T675,240.73a51.13,51.13,0,0,1-20.6,19.71,61.57,61.57,0,0,1-29.14,6.87A60.43,60.43,0,0,1,596.34,260.44Zm45.32-29.23q6.78-7.07,6.77-20.21t-6.57-20.2a22.28,22.28,0,0,0-32.47-.1q-6.48,7-6.47,20.3,0,13.16,6.37,20.21a20.63,20.63,0,0,0,16,7.06A21.84,21.84,0,0,0,641.66,231.21Z"/><path class="cls-1" d="M762.42,237.29v28.45H745.35q-18.24,0-28.45-8.93t-10.2-29.13V184.13H693.36V156.27H706.7V129.59h33.55v26.68h22v27.86h-22v43.94c0,3.27.78,5.63,2.35,7.06s4.19,2.16,7.85,2.16Z"/><path class="cls-1" d="M829.12,159.41a41.53,41.53,0,0,1,20.21-4.71,45.4,45.4,0,0,1,24.52,6.86,47.61,47.61,0,0,1,17.36,19.62q6.38,12.76,6.38,29.63t-6.38,29.72a48.19,48.19,0,0,1-17.36,19.82,44.89,44.89,0,0,1-24.52,7,41.68,41.68,0,0,1-20.11-4.71,36.89,36.89,0,0,1-13.64-12.16v67.49H782V156.27h33.55v15.5A36.41,36.41,0,0,1,829.12,159.41Zm27.37,31.68a23,23,0,0,0-17.17-7.16,22.62,22.62,0,0,0-17,7.26q-7,7.26-7,19.81t7,19.82a23.47,23.47,0,0,0,34-.1q7.07-7.35,7.06-19.91T856.49,191.09Z"/></g></g></svg>